<svg width="14" height="14" viewBox="0 0 14 14" fill="none" xmlns="http://www.w3.org/2000/svg">
<path d="M5.79688 1.6377L6.44141 0.993164C6.73438 0.729492 7.17383 0.729492 7.4375 0.993164L13.1504 6.67676C13.4141 6.96973 13.4141 7.40918 13.1504 7.67285L7.4375 13.3857C7.17383 13.6494 6.73438 13.6494 6.44141 13.3857L5.79688 12.7412C5.5332 12.4482 5.5332 12.0088 5.79688 11.7158L9.3418 8.34668H0.933594C0.523438 8.34668 0.230469 8.05371 0.230469 7.64355V6.70605C0.230469 6.3252 0.523438 6.00293 0.933594 6.00293H9.3418L5.79688 2.66309C5.5332 2.37012 5.50391 1.93066 5.79688 1.6377Z" fill="white"/>
</svg>
