<svg width="18" height="14" viewBox="0 0 18 14" fill="none" xmlns="http://www.w3.org/2000/svg">
<path d="M16.3125 0C17.2266 0 18 0.773438 18 1.6875V11.8125C18 12.7617 17.2266 13.5 16.3125 13.5H1.6875C0.738281 13.5 0 12.7617 0 11.8125V1.6875C0 0.773438 0.738281 0 1.6875 0H16.3125ZM16.3125 1.6875H1.6875V3.12891C2.46094 3.79688 3.72656 4.78125 6.39844 6.89062C6.99609 7.34766 8.15625 8.47266 9 8.4375C9.80859 8.47266 10.9688 7.34766 11.5664 6.89062C14.2383 4.78125 15.5039 3.79688 16.3125 3.12891V1.6875ZM1.6875 11.8125H16.3125V5.30859C15.5039 5.94141 14.3438 6.85547 12.6211 8.22656C11.8125 8.82422 10.4766 10.1602 9 10.125C7.48828 10.1602 6.11719 8.82422 5.34375 8.22656C3.62109 6.85547 2.46094 5.94141 1.6875 5.30859V11.8125Z" fill="white"/>
</svg>
