<svg width="264" height="264" viewBox="0 0 264 264" fill="none" xmlns="http://www.w3.org/2000/svg">
<g filter="url(#filter0_d_70_285)">
<rect x="96.9835" y="96.9834" width="70.033" height="70.033" rx="35" fill="white" fill-opacity="0.01" shape-rendering="crispEdges"/>
<g filter="url(#filter1_d_70_285)">
<rect x="96.9835" y="96.9834" width="70.033" height="70.033" rx="35" fill="white" fill-opacity="0.01" shape-rendering="crispEdges"/>
</g>
<g filter="url(#filter2_d_70_285)">
<rect x="96.9835" y="96.9834" width="70.033" height="70.033" rx="35" fill="white" shape-rendering="crispEdges"/>
<g clip-path="url(#clip0_70_285)">
<path d="M137.374 130.878L129.495 126.064C129.276 125.936 129.048 125.872 128.811 125.872C128.428 125.89 128.118 126.018 127.881 126.255C127.626 126.51 127.498 126.82 127.498 127.185V136.815C127.498 137.179 127.626 137.49 127.881 137.745C128.118 137.982 128.428 138.11 128.811 138.128C129.048 138.128 129.276 138.064 129.495 137.936L137.374 133.122C137.775 132.848 137.985 132.474 138.003 132C137.985 131.526 137.775 131.152 137.374 130.878ZM128.811 136.815V127.185L136.69 131.973L128.811 136.815Z" fill="#FF6D2E"/>
</g>
</g>
</g>
<defs>
<filter id="filter0_d_70_285" x="66.9694" y="76.974" width="130.061" height="130.061" filterUnits="userSpaceOnUse" color-interpolation-filters="sRGB">
<feFlood flood-opacity="0" result="BackgroundImageFix"/>
<feColorMatrix in="SourceAlpha" type="matrix" values="0 0 0 0 0 0 0 0 0 0 0 0 0 0 0 0 0 0 127 0" result="hardAlpha"/>
<feOffset dy="10"/>
<feGaussianBlur stdDeviation="15"/>
<feComposite in2="hardAlpha" operator="out"/>
<feColorMatrix type="matrix" values="0 0 0 0 0 0 0 0 0 0 0 0 0 0 0 0 0 0 0.1 0"/>
<feBlend mode="normal" in2="BackgroundImageFix" result="effect1_dropShadow_70_285"/>
<feBlend mode="normal" in="SourceGraphic" in2="effect1_dropShadow_70_285" result="shape"/>
</filter>
<filter id="filter1_d_70_285" x="7.63299e-06" y="-5.34309e-05" width="264" height="264" filterUnits="userSpaceOnUse" color-interpolation-filters="sRGB">
<feFlood flood-opacity="0" result="BackgroundImageFix"/>
<feColorMatrix in="SourceAlpha" type="matrix" values="0 0 0 0 0 0 0 0 0 0 0 0 0 0 0 0 0 0 127 0" result="hardAlpha"/>
<feMorphology radius="96.9378" operator="dilate" in="SourceAlpha" result="effect1_dropShadow_70_285"/>
<feOffset/>
<feComposite in2="hardAlpha" operator="out"/>
<feColorMatrix type="matrix" values="0 0 0 0 1 0 0 0 0 1 0 0 0 0 1 0 0 0 0.02 0"/>
<feBlend mode="normal" in2="BackgroundImageFix" result="effect1_dropShadow_70_285"/>
<feBlend mode="normal" in="SourceGraphic" in2="effect1_dropShadow_70_285" result="shape"/>
</filter>
<filter id="filter2_d_70_285" x="86.9788" y="86.9787" width="90.0424" height="90.0424" filterUnits="userSpaceOnUse" color-interpolation-filters="sRGB">
<feFlood flood-opacity="0" result="BackgroundImageFix"/>
<feColorMatrix in="SourceAlpha" type="matrix" values="0 0 0 0 0 0 0 0 0 0 0 0 0 0 0 0 0 0 127 0" result="hardAlpha"/>
<feOffset/>
<feGaussianBlur stdDeviation="5"/>
<feComposite in2="hardAlpha" operator="out"/>
<feColorMatrix type="matrix" values="0 0 0 0 1 0 0 0 0 1 0 0 0 0 1 0 0 0 0.3 0"/>
<feBlend mode="normal" in2="BackgroundImageFix" result="effect1_dropShadow_70_285"/>
<feBlend mode="normal" in="SourceGraphic" in2="effect1_dropShadow_70_285" result="shape"/>
</filter>
<clipPath id="clip0_70_285">
<rect width="14" height="14" fill="white" transform="matrix(1.00047 0 0 -1.00047 127.498 139.003)"/>
</clipPath>
</defs>
</svg>
