<svg width="12" height="9" viewBox="0 0 12 9" fill="none" xmlns="http://www.w3.org/2000/svg">
<path d="M5.59385 4.95692L1.82769 8.72308C1.55077 9 1.13538 9 0.886154 8.72308L0.249231 8.11385C0 7.83692 0 7.42154 0.249231 7.17231L2.93538 4.51385L0.249231 1.82769C0 1.57846 0 1.16308 0.249231 0.886154L0.886154 0.249231C1.13538 0 1.55077 0 1.82769 0.249231L5.59385 4.01538C5.84308 4.29231 5.84308 4.70769 5.59385 4.95692ZM10.9108 4.01538C11.16 4.29231 11.16 4.70769 10.9108 4.95692L7.14462 8.72308C6.89538 9 6.45231 9 6.20308 8.72308L5.56615 8.11385C5.31692 7.83692 5.31692 7.42154 5.56615 7.17231L8.25231 4.48615L5.56615 1.82769C5.31692 1.57846 5.31692 1.13538 5.56615 0.886154L6.20308 0.249231C6.45231 0 6.86769 0 7.14462 0.249231L10.9108 4.01538Z" fill="white"/>
</svg>
