<svg width="13" height="14" viewBox="0 0 13 14" fill="none" xmlns="http://www.w3.org/2000/svg">
<path d="M12.0862 5.63039L12.7347 6.27891C13 6.5737 13 7.01587 12.7347 7.28118L7.01587 13C6.72109 13.2948 6.27891 13.2948 6.01361 13L0.265306 7.28118C0 7.01587 0 6.54422 0.265306 6.27891L0.913832 5.63039C1.20862 5.3356 1.65079 5.36508 1.94558 5.63039L5.3356 9.19728V0.707483C5.3356 0.324263 5.63039 0 6.04308 0H6.98639C7.36961 0 7.69388 0.324263 7.69388 0.707483V9.19728L11.0544 5.63039C11.3492 5.36508 11.7914 5.3356 12.0862 5.63039Z" fill="white"/>
</svg>
