<svg width="14" height="12" viewBox="0 0 14 12" fill="none" xmlns="http://www.w3.org/2000/svg">
<path d="M12.5753 2.82191C12.5753 2.9589 12.5753 3.06849 12.5753 3.20547C12.5753 7.01368 9.69863 11.3698 4.41097 11.3698C2.76714 11.3698 1.2603 10.9041 2.43662e-05 10.0822C0.219202 10.1096 0.43838 10.137 0.684954 10.137C2.02742 10.137 3.26029 9.67121 4.24659 8.90409C2.98632 8.87669 1.91783 8.05478 1.56166 6.90409C1.75345 6.93149 1.91783 6.95889 2.10961 6.95889C2.35618 6.95889 2.63016 6.90409 2.84933 6.8493C1.53427 6.57533 0.547968 5.42465 0.547968 4.02739V3.99999C0.931529 4.21917 1.39728 4.32876 1.86303 4.35615C1.06852 3.83561 0.575366 2.9589 0.575366 1.9726C0.575366 1.42465 0.712352 0.931505 0.958926 0.520547C2.38358 2.24657 4.52056 3.39725 6.90412 3.53424C6.84932 3.31506 6.82193 3.09588 6.82193 2.87671C6.82193 1.28767 8.1096 0 9.69863 0C10.5205 0 11.2603 0.328766 11.8082 0.904108C12.4384 0.767122 13.0685 0.520547 13.6164 0.19178C13.3973 0.87671 12.9589 1.42465 12.3562 1.78082C12.9315 1.72602 13.5068 1.56164 14 1.34246C13.6164 1.9178 13.1233 2.41095 12.5753 2.82191Z" fill="white"/>
</svg>
