<svg width="29" height="23" viewBox="0 0 29 23" fill="none" xmlns="http://www.w3.org/2000/svg">
<path d="M28.5562 2.32583H0.387641C0.279963 2.32583 0.188436 2.28814 0.113062 2.21276C0.0376873 2.13739 0 2.04586 0 1.93818V0.387621C0 0.279945 0.0376873 0.188418 0.113062 0.113043C0.188436 0.0376685 0.279963 -1.7744e-05 0.387641 -1.7744e-05H28.5562C28.6639 -1.7744e-05 28.7554 0.0376685 28.8308 0.113043C28.9062 0.188418 28.9438 0.279945 28.9438 0.387621V1.93818C28.9438 2.04586 28.9062 2.13739 28.8308 2.21276C28.7554 2.28814 28.6639 2.32583 28.5562 2.32583ZM28.5562 12.6629H0.387641C0.279963 12.6629 0.188436 12.6252 0.113062 12.5499C0.0376873 12.4745 0 12.3829 0 12.2753V10.7247C0 10.617 0.0376873 10.5255 0.113062 10.4501C0.188436 10.3748 0.279963 10.3371 0.387641 10.3371H28.5562C28.6639 10.3371 28.7554 10.3748 28.8308 10.4501C28.9062 10.5255 28.9438 10.617 28.9438 10.7247V12.2753C28.9438 12.3829 28.9062 12.4745 28.8308 12.5499C28.7554 12.6252 28.6639 12.6629 28.5562 12.6629ZM28.5562 23H0.387641C0.279963 23 0.188436 22.9623 0.113062 22.8869C0.0376873 22.8116 0 22.72 0 22.6124V21.0618C0 20.9541 0.0376873 20.8626 0.113062 20.7872C0.188436 20.7118 0.279963 20.6742 0.387641 20.6742H28.5562C28.6639 20.6742 28.7554 20.7118 28.8308 20.7872C28.9062 20.8626 28.9438 20.9541 28.9438 21.0618V22.6124C28.9438 22.72 28.9062 22.8116 28.8308 22.8869C28.7554 22.9623 28.6639 23 28.5562 23Z" fill="white"/>
</svg>
