<svg width="13" height="13" viewBox="0 0 13 13" fill="none" xmlns="http://www.w3.org/2000/svg">
<path d="M6.51447 3.1559C8.33852 3.1559 9.84409 4.66147 9.84409 6.48552C9.84409 8.33853 8.33852 9.81514 6.51447 9.81514C4.66146 9.81514 3.18485 8.33853 3.18485 6.48552C3.18485 4.66147 4.66146 3.1559 6.51447 3.1559ZM6.51447 8.65702C7.70155 8.65702 8.65701 7.70156 8.65701 6.48552C8.65701 5.29844 7.70155 4.34298 6.51447 4.34298C5.29843 4.34298 4.34298 5.29844 4.34298 6.48552C4.34298 7.70156 5.32739 8.65702 6.51447 8.65702ZM10.7416 3.04009C10.7416 3.47439 10.3942 3.82183 9.9599 3.82183C9.52561 3.82183 9.17817 3.47439 9.17817 3.04009C9.17817 2.60579 9.52561 2.25835 9.9599 2.25835C10.3942 2.25835 10.7416 2.60579 10.7416 3.04009ZM12.9421 3.82183C13 4.8931 13 8.1069 12.9421 9.17817C12.8842 10.2205 12.6526 11.118 11.8998 11.8998C11.147 12.6526 10.2205 12.8842 9.17817 12.9421C8.1069 13 4.89309 13 3.82182 12.9421C2.7795 12.8842 1.88195 12.6526 1.10022 11.8998C0.347432 11.118 0.115806 10.2205 0.0578999 9.17817C-6.56376e-06 8.1069 -6.56376e-06 4.8931 0.0578999 3.82183C0.115806 2.77951 0.347432 1.85301 1.10022 1.10022C1.88195 0.347439 2.7795 0.115813 3.82182 0.0579065C4.89309 0 8.1069 0 9.17817 0.0579065C10.2205 0.115813 11.147 0.347439 11.8998 1.10022C12.6526 1.85301 12.8842 2.77951 12.9421 3.82183ZM11.5523 10.3073C11.8998 9.46771 11.8129 7.44098 11.8129 6.48552C11.8129 5.55902 11.8998 3.53229 11.5523 2.6637C11.3207 2.11359 10.8864 1.65033 10.3363 1.44766C9.4677 1.10022 7.44097 1.18708 6.51447 1.18708C5.55901 1.18708 3.53229 1.10022 2.69264 1.44766C2.11358 1.67929 1.67928 2.11359 1.44765 2.6637C1.10022 3.53229 1.18708 5.55902 1.18708 6.48552C1.18708 7.44098 1.10022 9.46771 1.44765 10.3073C1.67928 10.8864 2.11358 11.3207 2.69264 11.5523C3.53229 11.8998 5.55901 11.8129 6.51447 11.8129C7.44097 11.8129 9.4677 11.8998 10.3363 11.5523C10.8864 11.3207 11.3497 10.8864 11.5523 10.3073Z" fill="white"/>
</svg>
