<svg width="13" height="13" viewBox="0 0 13 13" fill="none" xmlns="http://www.w3.org/2000/svg">
<path d="M2.90178 12.971H0.203118V4.29464H2.90178V12.971ZM1.53794 3.13393C0.696422 3.13393 -6.57841e-06 2.40848 -6.57841e-06 1.53795C-6.57841e-06 0.696429 0.696422 0 1.53794 0C2.40848 0 3.1049 0.696429 3.1049 1.53795C3.1049 2.40848 2.40848 3.13393 1.53794 3.13393ZM12.971 12.971H10.3013V8.76339C10.3013 7.74777 10.2723 6.47098 8.87946 6.47098C7.4866 6.47098 7.28348 7.54464 7.28348 8.67634V12.971H4.58481V4.29464H7.1674V5.48437H7.19642C7.57365 4.81696 8.44419 4.09152 9.74999 4.09152C12.4777 4.09152 13 5.89062 13 8.21205V12.971H12.971Z" fill="white"/>
</svg>
